<?xml version="1.0" encoding="UTF-8" standalone="no"?>
<!-- Created with Inkscape (http://www.inkscape.org/) -->

<svg
   xmlns:dc="http://purl.org/dc/elements/1.1/"
   xmlns:cc="http://creativecommons.org/ns#"
   xmlns:rdf="http://www.w3.org/1999/02/22-rdf-syntax-ns#"
   xmlns:svg="http://www.w3.org/2000/svg"
   xmlns="http://www.w3.org/2000/svg"
   xmlns:sodipodi="http://sodipodi.sourceforge.net/DTD/sodipodi-0.dtd"
   xmlns:inkscape="http://www.inkscape.org/namespaces/inkscape"
   version="1.0"
   width="287.24301pt"
   height="177.55499pt"
   viewBox="0 0 287.243 177.555"
   id="svg1531"
   xml:space="preserve"
   sodipodi:version="0.32"
   inkscape:version="0.48.0 r9654"
   sodipodi:docname="tuxfamily.svg"><metadata
   id="metadata2149"><rdf:RDF><cc:Work
       rdf:about=""><dc:format>image/svg+xml</dc:format><dc:type
         rdf:resource="http://purl.org/dc/dcmitype/StillImage" /></cc:Work></rdf:RDF></metadata><sodipodi:namedview
   inkscape:window-height="799"
   inkscape:window-width="1280"
   inkscape:pageshadow="2"
   inkscape:pageopacity="0.0"
   guidetolerance="10.0"
   gridtolerance="10.0"
   objecttolerance="10.0"
   borderopacity="1.0"
   bordercolor="#666666"
   pagecolor="#ffffff"
   id="base"
   inkscape:zoom="1.4142136"
   inkscape:cx="298.85968"
   inkscape:cy="45.76941"
   inkscape:window-x="0"
   inkscape:window-y="0"
   inkscape:current-layer="svg1531"
   showgrid="false"
   inkscape:window-maximized="1" /><defs
   id="defs1734" />
	<g
   style="fill-rule:nonzero;stroke:#000000;stroke-miterlimit:4;fill:none"
   id="Calque_x0020_6">
		<path
   d="M 285.743,153.505 L 255.119,127.614 L 247.602,75.832 L 265.141,20.152 L 1.5,1.5 L 6.79,44.93 L 33.516,47.158 L 41.589,143.483 L 20.431,176.055 L 285.743,153.505 z "
   style="fill:none;stroke-width:3;stroke-linecap:round;stroke-linejoin:round"
   id="path1534"
   sodipodi:nodetypes="cccccccccc" />
		<path
   d="M 46.196,148.434 L 31.39,168.732 L 38.315,168.97 L 49.539,151.06 L 73.896,149.867 L 75.329,146.285 L 46.195,148.433 L 46.196,148.434 z "
   style="stroke:none;fill:none"
   id="path1536" />
		<path
   d="M 65.539,154.165 L 44.525,155.12 L 42.137,159.18 L 63.629,158.464 L 65.539,154.165 z "
   style="stroke:none;fill:none"
   id="path1538" />
		<path
   d="M 92.523,145.568 L 86.076,164.672 L 93.001,164.433 L 97.299,147.955 L 113.537,146.762 L 112.582,162.283 L 118.313,162.045 L 119.029,143.657 L 92.522,145.567 L 92.523,145.568 z "
   style="stroke:none;fill:none"
   id="path1540" />
		<path
   d="M 93.479,152.104 L 115.687,150.671 L 115.448,154.253 L 93.001,155.686 L 93.479,152.104 L 93.479,152.104 z "
   style="stroke:none;fill:none"
   id="path1542" />
		<path
   d="M 135.507,142.226 L 136.701,160.135 L 141.954,159.897 L 140.521,144.852 L 151.028,144.136 L 154.132,158.702 L 159.147,158.702 L 155.804,143.896 L 166.311,143.418 L 170.848,157.746 L 176.34,157.268 L 170.132,140.075 L 135.506,142.224 L 135.507,142.226 z "
   style="stroke:none;fill:none"
   id="path1544" />
		<path
   d="M 184.701,139.121 L 192.343,155.598 L 198.552,155.598 L 189.477,139.121 L 184.701,139.121 z "
   style="stroke:none;fill:none"
   id="path1546" />
		<path
   d="M 202.85,137.688 L 213.118,153.209 L 233.178,152.492 L 230.64,149.238 L 215.985,149.866 L 207.627,137.448 L 202.851,137.687 L 202.85,137.688 z "
   style="stroke:none;fill:none"
   id="path1548" />
		<path
   d="M 233.893,135.539 L 241.535,144.225 L 259.445,142.942 L 263.027,146.48 L 245.594,147.435 L 248.221,151.061 L 270.908,149.151 L 255.146,134.107 L 250.609,134.345 L 255.624,139.837 L 243.118,140.465 L 238.43,135.3 L 233.893,135.539 L 233.893,135.539 z "
   style="stroke:none;fill:none"
   id="path1550" />
	</g>
	<g
   style="fill:#000000;fill-rule:nonzero;stroke:#000000;stroke-linecap:round;stroke-linejoin:round;stroke-miterlimit:4"
   id="Calque_x0020_4">
		<linearGradient
   x1="220.45261"
   y1="129.27831"
   x2="215.7809"
   y2="100.906"
   id="aigrd1"
   gradientUnits="userSpaceOnUse">
			<stop
   style="stop-color:#be7b02;stop-opacity:1"
   offset="0.0225"
   id="stop1554" />
			<stop
   style="stop-color:#2f1901;stop-opacity:1"
   offset="0.85949999"
   id="stop1556" />
			<stop
   style="stop-color:#251301;stop-opacity:1"
   offset="1"
   id="stop1558" />
		</linearGradient>
		<path
   d="M 218.059,94.983 L 211.36,89.624 L 216.649,125.942 L 223.348,131.301 L 218.059,94.983 L 218.059,94.983 z "
   style="fill:#000000"
   id="path1560" />
		<linearGradient
   x1="224.0923"
   y1="56.611301"
   x2="220.97791"
   y2="23.2185"
   id="aigrd2"
   gradientUnits="userSpaceOnUse">
			<stop
   style="stop-color:#120a00;stop-opacity:1"
   offset="0.0169"
   id="stop1563" />
			<stop
   style="stop-color:#be7b02;stop-opacity:1"
   offset="0.63480002"
   id="stop1565" />
			<stop
   style="stop-color:#be7b02;stop-opacity:1"
   offset="0.93260002"
   id="stop1567" />
			<stop
   style="stop-color:#753c01;stop-opacity:1"
   offset="1"
   id="stop1569" />
		</linearGradient>
		<path
   d="M 223.686,25.801 L 213.813,57.536 L 221.585,56.196 L 231.458,24.461 L 223.686,25.801 z "
   style="fill:#000000"
   id="path1571" />
		<g
   id="g1573"
   style="fill:#000000">
			<linearGradient
   x1="113.9707"
   y1="128.0576"
   x2="176.54201"
   y2="128.0576"
   id="aigrd3"
   gradientUnits="userSpaceOnUse">
				<stop
   style="stop-color:#be7b02;stop-opacity:1"
   offset="0.0225"
   id="stop1576" />
				<stop
   style="stop-color:#2f1901;stop-opacity:1"
   offset="0.50559998"
   id="stop1578" />
				<stop
   style="stop-color:#be7b02;stop-opacity:1"
   offset="0.71350002"
   id="stop1580" />
				<stop
   style="stop-color:#753c01;stop-opacity:1"
   offset="1"
   id="stop1582" />
			</linearGradient>
			<path
   d="M 170.485,125.727 L 169.294,126.081 L 165.118,125.953 C 165.118,125.953 153.597,130.469 144.878,130.469 C 136.159,130.469 126.817,128.289 126.817,128.289 L 123.73,129.379 L 123.287,129.91 C 119.474,128.471 116.413,126.528 113.971,124.124 L 113.971,129.505 C 116.414,131.909 119.475,133.852 123.287,135.291 L 123.73,134.76 L 126.817,133.67 C 126.817,133.67 136.159,135.85 144.878,135.85 C 153.597,135.85 165.118,131.334 165.118,131.334 L 169.294,131.462 L 170.485,131.108 C 172.897,129.426 174.899,127.567 176.542,125.648 L 176.542,120.267 C 174.899,122.186 172.896,124.045 170.485,125.727 L 170.485,125.727 z "
   style="fill:#000000"
   id="path1584" />
			<linearGradient
   x1="172.9023"
   y1="117.0439"
   x2="176.4834"
   y2="117.0439"
   id="aigrd4"
   gradientUnits="userSpaceOnUse">
				<stop
   style="stop-color:#be7b02;stop-opacity:1"
   offset="0.0225"
   id="stop1587" />
				<stop
   style="stop-color:#2f1901;stop-opacity:1"
   offset="0.50559998"
   id="stop1589" />
				<stop
   style="stop-color:#be7b02;stop-opacity:1"
   offset="0.71350002"
   id="stop1591" />
				<stop
   style="stop-color:#753c01;stop-opacity:1"
   offset="1"
   id="stop1593" />
			</linearGradient>
			<path
   d="M 176.483,114.985 C 176.483,121.524 172.902,124.482 172.902,124.482 L 172.902,119.101 C 172.902,119.101 176.483,116.143 176.483,109.604 L 176.483,114.985 z "
   style="fill:#000000"
   id="path1595" />
			<linearGradient
   x1="170.9893"
   y1="100.9795"
   x2="180.8428"
   y2="100.9795"
   id="aigrd5"
   gradientUnits="userSpaceOnUse">
				<stop
   style="stop-color:#be7b02;stop-opacity:1"
   offset="0.0225"
   id="stop1598" />
				<stop
   style="stop-color:#2f1901;stop-opacity:1"
   offset="0.50559998"
   id="stop1600" />
				<stop
   style="stop-color:#be7b02;stop-opacity:1"
   offset="0.71350002"
   id="stop1602" />
				<stop
   style="stop-color:#753c01;stop-opacity:1"
   offset="1"
   id="stop1604" />
			</linearGradient>
			<path
   d="M 170.989,90.554 L 172.124,95.368 C 179.753,101.129 180.843,111.405 180.843,111.405 L 180.843,106.024 C 180.843,106.024 178.618,96.314 170.989,90.553 L 170.989,90.554 z "
   style="fill:#000000"
   id="path1606" />
			<linearGradient
   x1="107.2002"
   y1="101.3408"
   x2="118.7212"
   y2="101.3408"
   id="aigrd6"
   gradientUnits="userSpaceOnUse">
				<stop
   style="stop-color:#be7b02;stop-opacity:1"
   offset="0.0225"
   id="stop1609" />
				<stop
   style="stop-color:#2f1901;stop-opacity:1"
   offset="0.50559998"
   id="stop1611" />
				<stop
   style="stop-color:#be7b02;stop-opacity:1"
   offset="0.71350002"
   id="stop1613" />
				<stop
   style="stop-color:#753c01;stop-opacity:1"
   offset="1"
   id="stop1615" />
			</linearGradient>
			<path
   d="M 107.2,105.756 L 107.2,110.004 C 113.583,98.483 118.721,96.925 118.721,96.925 L 118.721,92.677 C 118.721,92.677 113.583,94.236 107.2,105.756 z "
   style="fill:#000000"
   id="path1617" />
			<g
   id="g1619"
   style="fill:#000000">
				<linearGradient
   x1="112.3379"
   y1="121.1914"
   x2="116.2026"
   y2="121.1914"
   id="aigrd7"
   gradientUnits="userSpaceOnUse">
					<stop
   style="stop-color:#be7b02;stop-opacity:1"
   offset="0.0225"
   id="stop1622" />
					<stop
   style="stop-color:#2f1901;stop-opacity:1"
   offset="0.50559998"
   id="stop1624" />
					<stop
   style="stop-color:#be7b02;stop-opacity:1"
   offset="0.71350002"
   id="stop1626" />
					<stop
   style="stop-color:#753c01;stop-opacity:1"
   offset="1"
   id="stop1628" />
				</linearGradient>
				<path
   d="M 116.203,127.88 L 116.203,122.499 C 116.203,122.499 113.182,121.17 112.485,114.503 C 112.391,115.347 112.338,116.185 112.338,117.01 C 112.338,126.197 116.203,127.88 116.203,127.88 L 116.203,127.88 z "
   style="fill:#000000"
   id="path1630" />
			</g>
			<linearGradient
   x1="85.901398"
   y1="139.4326"
   x2="85.901398"
   y2="42.0238"
   id="aigrd8"
   gradientUnits="userSpaceOnUse">
				<stop
   style="stop-color:#dab158;stop-opacity:1"
   offset="0.0056"
   id="stop1633" />
				<stop
   style="stop-color:#be7b02;stop-opacity:1"
   offset="0.23029999"
   id="stop1635" />
				<stop
   style="stop-color:#753c01;stop-opacity:1"
   offset="0.7809"
   id="stop1637" />
				<stop
   style="stop-color:#120a00;stop-opacity:1"
   offset="1"
   id="stop1639" />
			</linearGradient>
			<path
   d="M 86.325,36.548 L 82.305,42.444 L 85.478,138.707 L 89.498,132.811 L 86.325,36.548 z "
   style="fill:#000000"
   id="path1641" />
		</g>
		<linearGradient
   x1="158.1792"
   y1="77.075203"
   x2="181.6411"
   y2="77.075203"
   id="aigrd9"
   gradientUnits="userSpaceOnUse">
			<stop
   style="stop-color:#be7b02;stop-opacity:1"
   offset="0.0225"
   id="stop1644" />
			<stop
   style="stop-color:#2f1901;stop-opacity:1"
   offset="0.50559998"
   id="stop1646" />
			<stop
   style="stop-color:#be7b02;stop-opacity:1"
   offset="0.71350002"
   id="stop1648" />
			<stop
   style="stop-color:#753c01;stop-opacity:1"
   offset="1"
   id="stop1650" />
		</linearGradient>
		<path
   d="M 178.819,89.452 C 175.238,79.643 167.765,66.721 164.34,57.918 C 161.204,49.858 161.382,42.744 161.382,42.744 L 158.18,42.744 C 158.18,42.744 158.271,49.858 161.711,57.918 C 165.468,66.721 173.429,79.644 177.38,89.452 C 181.331,99.26 181.343,107.825 180.233,111.405 L 180.844,111.405 C 182.09,107.825 182.401,99.26 178.82,89.452 L 178.819,89.452 z "
   style="fill:#000000"
   id="path1652" />
		<linearGradient
   x1="150.1636"
   y1="31.540001"
   x2="175.70509"
   y2="31.540001"
   id="aigrd10"
   gradientUnits="userSpaceOnUse">
			<stop
   style="stop-color:#be7b02;stop-opacity:1"
   offset="0.0225"
   id="stop1655" />
			<stop
   style="stop-color:#2f1901;stop-opacity:1"
   offset="0.50559998"
   id="stop1657" />
			<stop
   style="stop-color:#be7b02;stop-opacity:1"
   offset="0.71350002"
   id="stop1659" />
			<stop
   style="stop-color:#753c01;stop-opacity:1"
   offset="1"
   id="stop1661" />
		</linearGradient>
		<path
   d="M 161.381,34.025 C 161.381,34.025 162.572,23.346 153.111,19.859 L 150.163,21.735 C 159.624,25.222 158.433,35.901 158.433,35.901 C 158.433,35.901 168.086,36.837 172.757,43.219 L 175.705,41.343 C 171.034,34.96 161.381,34.025 161.381,34.025 z "
   style="fill:#000000"
   id="path1663" />
		<linearGradient
   x1="128.84129"
   y1="35.640598"
   x2="143.00101"
   y2="35.640598"
   id="aigrd11"
   gradientUnits="userSpaceOnUse">
			<stop
   style="stop-color:#be7b02;stop-opacity:1"
   offset="0.0225"
   id="stop1666" />
			<stop
   style="stop-color:#2f1901;stop-opacity:1"
   offset="0.50559998"
   id="stop1668" />
			<stop
   style="stop-color:#be7b02;stop-opacity:1"
   offset="0.71350002"
   id="stop1670" />
			<stop
   style="stop-color:#753c01;stop-opacity:1"
   offset="1"
   id="stop1672" />
		</linearGradient>
		<path
   d="M 128.841,49.284 L 128.841,52.232 C 128.841,41.803 129.388,24.378 143.001,21.997 L 143.001,19.049 C 129.389,21.43 128.841,38.856 128.841,49.284 z "
   style="fill:#000000"
   id="path1674" />
		<linearGradient
   x1="186.15331"
   y1="133.45799"
   x2="193.4196"
   y2="36.224701"
   id="aigrd12"
   gradientUnits="userSpaceOnUse">
			<stop
   style="stop-color:#2f1901;stop-opacity:1"
   offset="0.0449"
   id="stop1677" />
			<stop
   style="stop-color:#753c01;stop-opacity:1"
   offset="0.1348"
   id="stop1679" />
			<stop
   style="stop-color:#be7b02;stop-opacity:1"
   offset="0.19660001"
   id="stop1681" />
			<stop
   style="stop-color:#be7b02;stop-opacity:1"
   offset="0.57300001"
   id="stop1683" />
			<stop
   style="stop-color:#2f1901;stop-opacity:1"
   offset="0.6742"
   id="stop1685" />
			<stop
   style="stop-color:#000000;stop-opacity:1"
   offset="1"
   id="stop1687" />
		</linearGradient>
		<path
   d="M 184.071,43.44 L 190.771,73.457 L 176.834,122.77 L 180.682,134.124 L 192.379,119.019 L 200.955,74.263 L 189.699,26.29 L 183.803,26.021 L 184.071,43.441 L 184.071,43.44 z "
   style="fill:#000000"
   id="path1689" />
		<g
   id="g1691"
   style="fill:#000000">
			<path
   d="M 102.374,135.07 C 102.374,135.07 111.405,138.339 123.082,135.537 L 123.288,135.29 C 119.475,133.851 116.414,131.908 113.972,129.504 L 102.375,135.07 L 102.374,135.07 z "
   id="path1693"
   style="fill:#000000" />
			<path
   d="M 176.542,125.647 C 174.899,127.566 172.896,129.425 170.485,131.107 C 174.972,131.308 178.868,130.818 181.69,130.255 L 182.376,127.619 L 176.543,125.646 L 176.542,125.647 z "
   id="path1695"
   style="fill:#000000" />
			<path
   d="M 169.294,131.461 L 165.118,131.333 C 165.118,131.333 153.597,135.849 144.878,135.849 C 136.159,135.849 126.817,133.669 126.817,133.669 L 123.73,134.759 L 123.287,135.29 C 128.63,137.308 135.43,138.354 144.011,138.354 C 155.947,138.354 164.484,135.29 170.485,131.107 C 170.293,131.098 170.098,131.085 169.904,131.074 C 169.704,131.204 169.504,131.334 169.294,131.461 L 169.294,131.461 z "
   id="path1697"
   style="fill:#000000" />
			<path
   d="M 181.689,130.256 L 180.682,134.123 L 209.596,132.359 L 218.059,94.983 L 223.348,131.301 L 248.383,129.891 L 240.274,74.884 L 256.494,25.519 L 231.459,24.46 L 221.586,56.195 L 218.765,23.402 L 9.314,8.946 L 12.84,39.27 L 38.933,40.681 L 47.748,141.174 L 85.477,138.706 L 82.304,42.443 L 104.518,42.796 C 104.518,42.796 105.576,79.468 105.576,102.387 C 105.576,114.193 107.739,123.37 113.97,129.503 L 114.05,129.465 L 115.467,130.207 C 114.985,129.834 114.557,129.476 114.234,129.152 L 116.203,127.879 C 116.203,127.879 112.338,126.195 112.338,117.009 C 112.338,107.823 118.721,96.924 118.721,96.924 C 118.721,96.924 113.583,98.483 107.2,110.003 C 107.2,110.003 107.667,96.147 115.763,81.979 C 123.859,67.811 128.841,60.494 128.841,49.284 C 128.841,38.855 129.388,21.43 143.001,19.049 L 141.764,114.279 C 141.764,117.86 143.165,120.592 146.123,120.592 C 149.081,120.592 151.261,118.243 151.261,113.572 C 151.261,109.171 152.92,29.096 153.112,19.859 C 162.573,23.346 161.382,34.025 161.382,34.025 C 161.382,34.025 171.035,34.961 175.706,41.343 C 175.706,41.343 171.97,42.587 161.382,42.743 C 161.382,42.743 161.204,49.857 164.34,57.917 C 167.765,66.72 175.238,79.643 178.819,89.451 C 182.4,99.259 182.089,107.824 180.843,111.404 C 180.843,111.404 179.753,101.128 172.124,95.367 C 172.124,95.367 176.483,105.642 176.483,114.984 C 176.483,121.523 172.902,124.481 172.902,124.481 L 176.016,125.416 C 176.016,125.416 176.005,125.432 175.986,125.458 L 176.542,125.646 C 181.196,120.209 182.993,114.326 183.151,110.849 C 183.504,103.091 187.382,29.043 187.382,29.043 L 196.197,74.53 L 182.375,127.618 L 181.689,130.254 L 181.689,130.256 z "
   id="path1699"
   style="fill:#000000" />
		</g>
	</g>
	
<g
   id="g5529"
   transform="translate(-160.67085,75.285504)"><path
     id="path1536-8"
     style="fill-rule:nonzero;stroke:none"
     d="m 206.82791,73.192346 -14.806,20.297999 6.925,0.238 11.224,-17.91 24.357,-1.193 1.433,-3.581999 -29.134,2.148 9.6e-4,9.6e-4 z"
     inkscape:connector-curvature="0" /><path
     id="path1538-6"
     style="fill-rule:nonzero;stroke:none"
     d="m 226.17091,78.923345 -21.014,0.955 -2.388,4.06 21.492,-0.716 1.91,-4.299 z"
     inkscape:connector-curvature="0" /><path
     id="path1540-2"
     style="fill-rule:nonzero;stroke:none"
     d="m 253.15491,70.326346 -6.447,19.103999 6.925,-0.239 4.298,-16.477999 16.238,-1.193 -0.955,15.520999 5.731,-0.238 0.716,-18.387999 -26.507,1.91 0.001,0.001 z"
     inkscape:connector-curvature="0" /><path
     id="path1542-2"
     style="fill-rule:nonzero;stroke:none"
     d="m 254.11091,76.862345 22.208,-1.433 -0.239,3.582 -22.447,1.433 0.478,-3.582 0,0 z"
     inkscape:connector-curvature="0" /><path
     id="path1544-5"
     style="fill-rule:nonzero;stroke:none"
     d="m 296.1389,66.984346 1.194,17.908999 5.253,-0.238 -1.433,-15.044999 10.507,-0.716 3.104,14.565999 5.015,0 -3.343,-14.805999 10.507,-0.478 4.537,14.327999 5.492,-0.478 -6.208,-17.192999 -34.626,2.149 8e-4,0.002 z"
     inkscape:connector-curvature="0" /><path
     id="path1546-4"
     style="fill-rule:nonzero;stroke:none"
     d="m 345.3329,63.879346 7.642,16.476999 6.209,0 -9.075,-16.476999 -4.776,0 z"
     inkscape:connector-curvature="0" /><path
     id="path1548-5"
     style="fill-rule:nonzero;stroke:none"
     d="m 363.4819,62.446346 10.268,15.520999 20.06,-0.717 -2.538,-3.254 -14.655,0.628 -8.358,-12.417999 -4.776,0.239 -8e-4,10e-4 z"
     inkscape:connector-curvature="0" /><path
     id="path1550-2"
     style="fill-rule:nonzero;stroke:none"
     d="m 394.5249,60.297346 7.642,8.686 17.91,-1.283 3.582,3.538 -17.433,0.955 2.627,3.625999 22.687,-1.91 -15.762,-15.043999 -4.537,0.238 5.015,5.492 -12.506,0.628 -4.688,-5.165 -4.537,0.239 0,0 z"
     inkscape:connector-curvature="0" /></g></svg>